<svg xmlns="http://www.w3.org/2000/svg" width="410" height="404" viewBox="0 0 410 404" fill="none"><path d="M399.641 59.5241L224.606 372.13C213.815 391.448 186.084 391.571 175.129 372.342L10.3362 82.9195C-1.68101 61.809 16.2785 36.4037 40.4371 40.8984L204.853 71.4824C208.089 72.0849 211.41 72.0808 214.645 71.4705L369.596 42.2147C393.735 37.6547 411.777 38.2944 399.641 59.5241Z" fill="#41D1FF"/><path d="M292.965 110.314L163.424 134.617C161.925 134.9 160.815 136.194 160.759 137.718L152.796 346.53C152.658 350.168 157.454 351.561 159.284 348.41L197.803 281.99C199.7 278.719 204.562 280.114 204.491 283.895L203.093 362.642C203.03 366.244 207.696 367.722 209.643 364.626L232.003 328.841C234.033 325.592 238.959 327.191 238.739 330.984L235.325 390.119C235.207 392.158 237.86 393.042 239.005 391.348L404.607 145.69C406.731 142.541 403.972 138.355 400.289 139.04L295.467 158.54C293.679 158.873 292.156 157.093 292.784 155.382L312.297 101.998C313.238 99.425 310.653 97.9395 308.396 99.0352L292.965 110.314Z" fill="#0B70FF"/><path d="M269.348 23.7596L150.339 45.0362C148.761 45.3176 147.607 46.7114 147.567 48.3144L139.737 341.067C139.644 344.659 144.356 346.014 146.186 342.926L182.696 281.1C184.594 277.887 189.421 279.273 189.357 283.025L188.084 360.621C188.025 364.173 192.596 365.657 194.542 362.634L215.651 329.77C217.682 326.609 222.54 328.192 222.323 331.92L218.989 389.67C218.87 391.685 221.502 392.576 222.636 390.892L380.197 155.683C382.318 152.52 379.541 148.34 375.868 149.06L276.214 168.706C274.425 169.059 272.894 167.299 273.535 165.586L291.964 116.299C292.927 113.721 290.326 112.229 288.066 113.34L269.348 23.7596Z" fill="#0B70FF"/></svg>
